<svg xmlns="http://www.w3.org/2000/svg" xmlns:xlink="http://www.w3.org/1999/xlink" fill="none" stroke="none" stroke-linecap="square" stroke-miterlimit="10" version="1.1" viewBox="0 0 800 800"><path fill="#000" fill-opacity="0" fill-rule="evenodd" d="m228.70927 457.22958l255.01207 -0.21435547"/><path fill-rule="evenodd" stroke="#000" stroke-linecap="butt" stroke-linejoin="round" stroke-width="3" d="m228.70927 457.22958l255.01207 -0.21435547"/><path fill="#000" fill-opacity="0" fill-rule="evenodd" d="m455.34888 66.77948l-225.43097 390.44928"/><path fill-rule="evenodd" stroke="#000" stroke-linecap="butt" stroke-linejoin="round" stroke-width="3" d="m455.34888 66.77948l-225.43097 390.44928"/><path fill="#000" fill-opacity="0" fill-rule="evenodd" d="m455.23276 66.975975l266.23 461.11526"/><path fill-rule="evenodd" stroke="#000" stroke-linecap="butt" stroke-linejoin="round" stroke-width="3" d="m455.23276 66.975975l266.23 461.11526"/><path fill="#000" fill-opacity="0" fill-rule="evenodd" d="m448.20068 236.41241l-127.50601 220.89377"/><path fill-rule="evenodd" stroke="#000" stroke-linecap="butt" stroke-linejoin="round" stroke-width="3" d="m448.20068 236.41241l-127.50601 220.89377"/><path fill="#000" fill-opacity="0" fill-rule="evenodd" d="m447.97147 236.38263l220.78659 382.44666"/><path fill-rule="evenodd" stroke="#000" stroke-linecap="butt" stroke-linejoin="round" stroke-width="3" d="m447.97147 236.38263l220.78659 382.44666"/><path fill="#000" fill-opacity="0" fill-rule="evenodd" d="m669.0617 618.8412l52.410034 -90.74396"/><path fill-rule="evenodd" stroke="#000" stroke-linecap="butt" stroke-linejoin="round" stroke-width="3" d="m669.0617 618.8412l52.410034 -90.74396"/><path fill="#000" fill-opacity="0" fill-rule="evenodd" d="m669.0604 618.7524l-543.24927 0"/><path fill-rule="evenodd" stroke="#000" stroke-linecap="butt" stroke-linejoin="round" stroke-width="3" d="m669.0604 618.7524l-543.24927 0"/><path fill="#000" fill-opacity="0" fill-rule="evenodd" d="m530.175 535.79694l-127.64896 -220.78662"/><path fill-rule="evenodd" stroke="#000" stroke-linecap="butt" stroke-linejoin="round" stroke-width="3" d="m530.175 535.79694l-127.64896 -220.78662"/><path fill="#000" fill-opacity="0" fill-rule="evenodd" d="m530.31525 535.61316l-451.71933 0"/><path fill-rule="evenodd" stroke="#000" stroke-linecap="butt" stroke-linejoin="round" stroke-width="3" d="m530.31525 535.61316l-451.71933 0"/><path fill="#000" fill-opacity="0" fill-rule="evenodd" d="m78.64649 535.9954l47.80137 82.812805"/><path fill-rule="evenodd" stroke="#000" stroke-linecap="butt" stroke-linejoin="round" stroke-width="3" d="m78.64649 535.9954l47.80137 82.812805"/><path fill="#000" fill-opacity="0" fill-rule="evenodd" d="m78.52873 535.9948l270.7315 -468.90353"/><path fill-rule="evenodd" stroke="#000" stroke-linecap="butt" stroke-linejoin="round" stroke-width="3" d="m78.52873 535.9948l270.7315 -468.90353"/><path fill="#000" fill-opacity="0" fill-rule="evenodd" d="m455.23215 67.257706l-106.35626 0"/><path fill-rule="evenodd" stroke="#000" stroke-linecap="butt" stroke-linejoin="round" stroke-width="3" d="m455.23215 67.257706l-106.35626 0"/></svg>