<svg version="1.1" viewBox="0.0 0.0 800.0 800.0" fill="none" stroke="none" stroke-linecap="square" stroke-miterlimit="10" xmlns:xlink="http://www.w3.org/1999/xlink" xmlns="http://www.w3.org/2000/svg"><clipPath id="p.0"><path d="m0 0l800.0 0l0 800.0l-800.0 0l0 -800.0z" clip-rule="nonzero"/></clipPath><g clip-path="url(#p.0)"><path fill="#000000" fill-opacity="0.0" d="m0 0l800.0 0l0 800.0l-800.0 0z" fill-rule="evenodd"/><path fill="#ffffff" d="m0 0l800.0 0l0 800.0l-800.0 0z" fill-rule="evenodd"/><path fill="#000000" fill-opacity="0.0" d="m228.70927 514.41986l255.01207 -0.21435547" fill-rule="evenodd"/><path stroke="#000000" stroke-width="3.0" stroke-linejoin="round" stroke-linecap="butt" d="m228.70927 514.41986l255.01207 -0.21435547" fill-rule="evenodd"/><path fill="#000000" fill-opacity="0.0" d="m455.34888 123.96977l-225.43097 390.44928" fill-rule="evenodd"/><path stroke="#000000" stroke-width="3.0" stroke-linejoin="round" stroke-linecap="butt" d="m455.34888 123.96977l-225.43097 390.44928" fill-rule="evenodd"/><path fill="#000000" fill-opacity="0.0" d="m455.23276 124.16626l266.23 461.1153" fill-rule="evenodd"/><path stroke="#000000" stroke-width="3.0" stroke-linejoin="round" stroke-linecap="butt" d="m455.23276 124.16626l266.23 461.1153" fill-rule="evenodd"/><path fill="#000000" fill-opacity="0.0" d="m448.20068 293.6027l-127.50601 220.89377" fill-rule="evenodd"/><path stroke="#000000" stroke-width="3.0" stroke-linejoin="round" stroke-linecap="butt" d="m448.20068 293.6027l-127.50601 220.89377" fill-rule="evenodd"/><path fill="#000000" fill-opacity="0.0" d="m447.97147 293.57294l220.78659 382.44666" fill-rule="evenodd"/><path stroke="#000000" stroke-width="3.0" stroke-linejoin="round" stroke-linecap="butt" d="m447.97147 293.57294l220.78659 382.44666" fill-rule="evenodd"/><path fill="#000000" fill-opacity="0.0" d="m669.0617 676.0315l52.410034 -90.74402" fill-rule="evenodd"/><path stroke="#000000" stroke-width="3.0" stroke-linejoin="round" stroke-linecap="butt" d="m669.0617 676.0315l52.410034 -90.74402" fill-rule="evenodd"/><path fill="#000000" fill-opacity="0.0" d="m669.0604 675.9426l-543.24927 0" fill-rule="evenodd"/><path stroke="#000000" stroke-width="3.0" stroke-linejoin="round" stroke-linecap="butt" d="m669.0604 675.9426l-543.24927 0" fill-rule="evenodd"/><path fill="#000000" fill-opacity="0.0" d="m530.175 592.9872l-127.64896 -220.78656" fill-rule="evenodd"/><path stroke="#000000" stroke-width="3.0" stroke-linejoin="round" stroke-linecap="butt" d="m530.175 592.9872l-127.64896 -220.78656" fill-rule="evenodd"/><path fill="#000000" fill-opacity="0.0" d="m530.31525 592.80347l-451.71933 0" fill-rule="evenodd"/><path stroke="#000000" stroke-width="3.0" stroke-linejoin="round" stroke-linecap="butt" d="m530.31525 592.80347l-451.71933 0" fill-rule="evenodd"/><path fill="#000000" fill-opacity="0.0" d="m78.64649 593.1857l47.80137 82.812805" fill-rule="evenodd"/><path stroke="#000000" stroke-width="3.0" stroke-linejoin="round" stroke-linecap="butt" d="m78.64649 593.1857l47.80137 82.812805" fill-rule="evenodd"/><path fill="#000000" fill-opacity="0.0" d="m78.52873 593.1851l270.7315 -468.90356" fill-rule="evenodd"/><path stroke="#000000" stroke-width="3.0" stroke-linejoin="round" stroke-linecap="butt" d="m78.52873 593.1851l270.7315 -468.90356" fill-rule="evenodd"/><path fill="#000000" fill-opacity="0.0" d="m455.23215 124.448l-106.35626 0" fill-rule="evenodd"/><path stroke="#000000" stroke-width="3.0" stroke-linejoin="round" stroke-linecap="butt" d="m455.23215 124.448l-106.35626 0" fill-rule="evenodd"/></g></svg>