<svg xmlns="http://www.w3.org/2000/svg" xmlns:xlink="http://www.w3.org/1999/xlink" id="Capa_1" x="0" y="0" version="1.1" viewBox="0 0 511.999 511.999" xml:space="preserve" style="enable-background:new 0 0 511.999 511.999"><polygon style="fill:#ffc433" points="504.399 249.944 247.188 168.497 225.979 130.181 504.399 40.567"/><polygon style="fill:#97d4ac" points="239.901 155.517 247.085 168.497 504.295 249.944 504.295 197.725"/><polygon style="fill:#f23466" points="504.399 40.567 225.979 130.181 229.739 136.973 504.399 92.786"/><polygon style="fill:#65cdef" points="234.323 145.255 240.004 155.517 504.399 197.725 504.399 145.255"/><polygon style="fill:#e3e3e3" points="338.278 333.055 372.097 394.152 225.979 471.433 79.86 394.152 161.135 247.325 173.64 224.734 225.979 130.181 324.067 307.38"/><polygon style="fill:#aeaeae" points="338.278 333.056 324.067 307.38 225.979 130.181 225.979 471.433 372.097 394.152"/><polygon style="fill:#d3fdf9" points="225.979 130.181 7.601 130.181 7.601 160.33 209.29 160.33"/><path d="M225.979,479.034c-1.221,0-2.442-0.294-3.554-0.882L76.306,400.871c-1.804-0.954-3.148-2.595-3.732-4.551	c-0.582-1.956-0.354-4.064,0.635-5.85l81.273-146.827c2.032-3.673,6.66-5.002,10.331-2.97c3.673,2.033,5.003,6.659,2.97,10.332	l-77.52,140.049l135.716,71.779l135.716-71.779l-30.066-54.318c-2.033-3.673-0.703-8.299,2.97-10.332	c3.672-2.031,8.299-0.703,10.331,2.97l33.818,61.096c0.989,1.786,1.217,3.894,0.635,5.85c-0.583,1.956-1.927,3.596-3.732,4.551	l-146.118,77.281C228.421,478.74,227.2,479.034,225.979,479.034z"/><path d="M225.979,472.917c-4.199,0-7.601-3.403-7.601-7.601v-60.453c0-4.198,3.402-7.601,7.601-7.601	c4.199,0,7.601,3.403,7.601,7.601v60.453C233.58,469.514,230.177,472.917,225.979,472.917z"/><path d="M508.875,34.424c-1.963-1.431-4.493-1.838-6.806-1.093L224.786,122.58H7.601c-4.199,0-7.601,3.403-7.601,7.601v30.149	c0,4.198,3.402,7.601,7.601,7.601h188.793l-29.405,53.122c-2.033,3.673-0.703,8.299,2.97,10.332	c3.671,2.032,8.299,0.703,10.331-2.97l45.689-82.539l1.652,2.986c0.007,0.013,0.014,0.026,0.021,0.04l89.764,162.162	c1.388,2.506,3.982,3.921,6.657,3.921c1.246,0,2.508-0.307,3.674-0.952c3.673-2.033,5.003-6.659,2.97-10.332l-67.642-122.2	l239.03,75.691c0.751,0.238,1.524,0.355,2.295,0.355c1.595,0,3.172-0.503,4.491-1.469c1.956-1.432,3.111-3.71,3.111-6.133V40.567	C512,38.137,510.838,35.854,508.875,34.424z M496.797,152.857v35.956l-225.238-35.956H496.797z M273.363,137.654l223.434-35.946	v35.946H273.363z M496.797,86.31l-219.34,35.287l219.34-70.598V86.31z M204.81,152.728H15.203v-14.946h197.88l-1.403,2.535	L204.81,152.728z M271.637,168.265l225.16,35.944v35.355L271.637,168.265z"/><path d="M225.979,220.734c-4.199,0-7.601,3.403-7.601,7.601v72.471c0,4.198,3.402,7.601,7.601,7.601	c4.199,0,7.601-3.403,7.601-7.601v-72.471C233.58,224.138,230.177,220.734,225.979,220.734z"/></svg>